<?xml version="1.0" encoding="UTF-8"?>
<!DOCTYPE svg PUBLIC "-//W3C//DTD SVG 1.1//EN" "http://www.w3.org/Graphics/SVG/1.1/DTD/svg11.dtd">
<!-- Creator: CorelDRAW 2020 (64-Bit) -->
<svg xmlns="http://www.w3.org/2000/svg" xml:space="preserve" width="1346px" height="1121px" version="1.1" style="shape-rendering:geometricPrecision; text-rendering:geometricPrecision; image-rendering:optimizeQuality; fill-rule:evenodd; clip-rule:evenodd"
viewBox="0 0 1346 1121"
 xmlns:xlink="http://www.w3.org/1999/xlink"
 xmlns:xodm="http://www.corel.com/coreldraw/odm/2003">
 <defs>
  <style type="text/css">
   <![CDATA[
    .fil0 {fill:#003366;fill-rule:nonzero}
    .fil1 {fill:yellow;fill-rule:nonzero}
   ]]>
  </style>
 </defs>
 <g id="Capa_x0020_1">
  <metadata id="CorelCorpID_0Corel-Layer"/>
  <path class="fil0" d="M771.769 436.924l-137.575 478.972 -48.962 -13.935 137.574 -478.972 48.963 13.935zm-258.495 381.301l-253.329 -161.354 241.667 -156.494 27.662 42.592 -175.39 113.574 186.661 118.89 -27.271 42.792zm281.347 -42.792l186.66 -118.89 -175.39 -113.574 27.662 -42.592 241.67 156.494 -253.333 161.354 -27.269 -42.792zm167.571 -666.487c22.513,0 40.762,18.249 40.762,40.762 0,22.513 -18.249,40.763 -40.762,40.763 -22.513,0 -40.762,-18.25 -40.762,-40.763 0,-22.513 18.249,-40.762 40.762,-40.762zm111.383 0c22.513,0 40.762,18.249 40.762,40.762 0,22.513 -18.249,40.763 -40.762,40.763 -22.513,0 -40.763,-18.25 -40.763,-40.763 0,-22.513 18.25,-40.762 40.763,-40.762zm111.013 0c22.513,0 40.762,18.249 40.762,40.762 0,22.513 -18.249,40.763 -40.762,40.763 -22.513,0 -40.763,-18.25 -40.763,-40.763 0,-22.513 18.25,-40.762 40.763,-40.762z"/>
  <path class="fil1" d="M107.003 -0.003l1131.994 0c29.45,0 56.215,12.033 75.593,31.411 19.378,19.378 31.41,46.135 31.41,75.593l0 906.998c0,29.384 -12.032,56.107 -31.41,75.493l0 0.1c-19.378,19.377 -46.143,31.41 -75.593,31.41l-1131.994 0c-29.45,0 -56.215,-12.033 -75.593,-31.41l0 -0.1c-19.378,-19.386 -31.41,-46.109 -31.41,-75.493l0 -906.998c0,-29.458 12.032,-56.215 31.41,-75.593 19.378,-19.378 46.135,-31.411 75.593,-31.411zm1131.994 50.958l-1131.994 0c-15.388,0 -29.4,6.317 -39.564,16.481 -10.165,10.165 -16.482,24.177 -16.482,39.565l0 144.623 1244.085 0 0 -144.623c0,-15.388 -6.316,-29.4 -16.481,-39.565 -10.164,-10.164 -24.177,-16.481 -39.564,-16.481zm56.045 251.627l-1244.085 0 0 711.417c0,15.426 6.298,29.45 16.432,39.614l0.05 -0.05c10.164,10.165 24.176,16.481 39.564,16.481l1131.994 0c15.387,0 29.4,-6.316 39.564,-16.481l0.05 0.05c10.134,-10.164 16.431,-24.188 16.431,-39.614l0 -711.417z"/>
 </g>
</svg>
