<svg id="erec3jdkwxms1" xmlns="http://www.w3.org/2000/svg" xmlns:xlink="http://www.w3.org/1999/xlink" viewBox="0 0 1346 1121" shape-rendering="geometricPrecision" text-rendering="geometricPrecision"><style><![CDATA[#erec3jdkwxms3 {animation: erec3jdkwxms3_c_o 1000ms linear infinite normal forwards}@keyframes erec3jdkwxms3_c_o { 0% {opacity: 1} 50% {opacity: 0} 100% {opacity: 1} }#erec3jdkwxms4 {animation: erec3jdkwxms4_c_o 1000ms linear infinite normal forwards}@keyframes erec3jdkwxms4_c_o { 0% {opacity: 0} 50% {opacity: 1} 100% {opacity: 0} }]]></style><defs><filter id="erec3jdkwxms3-filter" x="-400%" width="600%" y="-400%" height="600%"><feComponentTransfer id="erec3jdkwxms3-filter-opacity-0" result="result"><feFuncA id="erec3jdkwxms3-filter-opacity-0-A" type="table" tableValues="0 1"/></feComponentTransfer></filter><filter id="erec3jdkwxms4-filter" x="-400%" width="600%" y="-400%" height="600%"><feComponentTransfer id="erec3jdkwxms4-filter-opacity-0" result="result"><feFuncA id="erec3jdkwxms4-filter-opacity-0-A" type="table" tableValues="0 1"/></feComponentTransfer></filter></defs><g id="erec3jdkwxms2" clip-rule="evenodd"><path id="erec3jdkwxms3" d="M771.769000,436.924000L634.194000,915.896000L585.232000,901.961000L722.806000,422.989000L771.769000,436.924000ZM513.274000,818.225000L259.945000,656.871000L501.612000,500.377000L529.274000,542.969000L353.884000,656.543000L540.545000,775.433000L513.274000,818.225000ZM794.621000,775.433000L981.281000,656.543000L805.891000,542.969000L833.553000,500.377000L1075.223000,656.871000L821.890000,818.225000L794.621000,775.433000ZM962.192000,108.946000C984.705000,108.946000,1002.954000,127.195000,1002.954000,149.708000C1002.954000,172.221000,984.705000,190.471000,962.192000,190.471000C939.679000,190.471000,921.430000,172.221000,921.430000,149.708000C921.430000,127.195000,939.679000,108.946000,962.192000,108.946000ZM1073.575000,108.946000C1096.088000,108.946000,1114.337000,127.195000,1114.337000,149.708000C1114.337000,172.221000,1096.088000,190.471000,1073.575000,190.471000C1051.062000,190.471000,1032.812000,172.221000,1032.812000,149.708000C1032.812000,127.195000,1051.062000,108.946000,1073.575000,108.946000ZM1184.588000,108.946000C1207.101000,108.946000,1225.350000,127.195000,1225.350000,149.708000C1225.350000,172.221000,1207.101000,190.471000,1184.588000,190.471000C1162.075000,190.471000,1143.825000,172.221000,1143.825000,149.708000C1143.825000,127.195000,1162.075000,108.946000,1184.588000,108.946000Z" clip-rule="evenodd" filter="url(#erec3jdkwxms3-filter)" fill="rgb(0,51,102)" stroke="none" stroke-width="1"/><path id="erec3jdkwxms4" d="M107.003000,-0.003000L1238.997000,-0.003000C1268.447000,-0.003000,1295.212000,12.030000,1314.590000,31.408000C1333.968000,50.786000,1346,77.543000,1346,107.001000L1346,1013.999000C1346,1043.383000,1333.968000,1070.106000,1314.590000,1089.492000L1314.590000,1089.592000C1295.212000,1108.969000,1268.447000,1121.002000,1238.997000,1121.002000L107.003000,1121.002000C77.553000,1121.002000,50.788000,1108.969000,31.410000,1089.592000L31.410000,1089.492000C12.032000,1070.106000,-0,1043.383000,-0,1013.999000L-0,107.001000C-0,77.543000,12.032000,50.786000,31.410000,31.408000C50.788000,12.030000,77.545000,-0.003000,107.003000,-0.003000ZM1238.997000,50.955000L107.003000,50.955000C91.615000,50.955000,77.603000,57.272000,67.439000,67.436000C57.274000,77.601000,50.957000,91.613000,50.957000,107.001000L50.957000,251.624000L1295.042000,251.624000L1295.042000,107.001000C1295.042000,91.613000,1288.726000,77.601000,1278.561000,67.436000C1268.397000,57.272000,1254.384000,50.955000,1238.997000,50.955000ZM1295.042000,302.582000L50.957000,302.582000L50.957000,1013.999000C50.957000,1029.425000,57.255000,1043.449000,67.389000,1053.613000L67.439000,1053.563000C77.603000,1063.728000,91.615000,1070.044000,107.003000,1070.044000L1238.997000,1070.044000C1254.384000,1070.044000,1268.397000,1063.728000,1278.561000,1053.563000L1278.611000,1053.613000C1288.745000,1043.449000,1295.042000,1029.425000,1295.042000,1013.999000L1295.042000,302.582000Z" opacity="0" clip-rule="evenodd" filter="url(#erec3jdkwxms4-filter)" fill="rgb(255,255,0)" stroke="none" stroke-width="1"/></g></svg>